<?xml version="1.0" standalone="no"?>
<svg xmlns:xlink="http://www.w3.org/1999/xlink" id="wave" style="transform:rotate(180deg); transition: 0.3s" viewBox="0 0 1440 490" version="1.1" xmlns="http://www.w3.org/2000/svg"><defs><linearGradient id="sw-gradient-0" x1="0" x2="0" y1="1" y2="0"><stop stop-color="rgba(243, 106, 62, 1)" offset="0%"/><stop stop-color="rgba(255, 179, 11, 1)" offset="100%"/></linearGradient></defs><path style="transform:translate(0, 0px); opacity:1" fill="url(#sw-gradient-0)" d="M0,98L30,147C60,196,120,294,180,302.2C240,310,300,229,360,204.2C420,180,480,212,540,236.8C600,261,660,278,720,294C780,310,840,327,900,277.7C960,229,1020,114,1080,89.8C1140,65,1200,131,1260,204.2C1320,278,1380,359,1440,367.5C1500,376,1560,310,1620,245C1680,180,1740,114,1800,89.8C1860,65,1920,82,1980,98C2040,114,2100,131,2160,163.3C2220,196,2280,245,2340,285.8C2400,327,2460,359,2520,383.8C2580,408,2640,425,2700,432.8C2760,441,2820,441,2880,432.8C2940,425,3000,408,3060,334.8C3120,261,3180,131,3240,65.3C3300,0,3360,0,3420,16.3C3480,33,3540,65,3600,81.7C3660,98,3720,98,3780,81.7C3840,65,3900,33,3960,65.3C4020,98,4080,196,4140,245C4200,294,4260,294,4290,294L4320,294L4320,490L4290,490C4260,490,4200,490,4140,490C4080,490,4020,490,3960,490C3900,490,3840,490,3780,490C3720,490,3660,490,3600,490C3540,490,3480,490,3420,490C3360,490,3300,490,3240,490C3180,490,3120,490,3060,490C3000,490,2940,490,2880,490C2820,490,2760,490,2700,490C2640,490,2580,490,2520,490C2460,490,2400,490,2340,490C2280,490,2220,490,2160,490C2100,490,2040,490,1980,490C1920,490,1860,490,1800,490C1740,490,1680,490,1620,490C1560,490,1500,490,1440,490C1380,490,1320,490,1260,490C1200,490,1140,490,1080,490C1020,490,960,490,900,490C840,490,780,490,720,490C660,490,600,490,540,490C480,490,420,490,360,490C300,490,240,490,180,490C120,490,60,490,30,490L0,490Z"/></svg>